<svg id="svg" version="1.1" width="400" height="400" viewBox="0 0 400 400" xmlns="http://www.w3.org/2000/svg" xmlns:xlink="http://www.w3.org/1999/xlink" ><g id="svgg"><path id="path0" d="M198.400 92.829 C 181.146 93.364,183.052 92.557,180.421 100.443 C 178.324 106.729,178.369 107.311,180.875 106.250 C 181.604 105.942,183.145 105.309,184.300 104.845 C 185.455 104.380,187.255 103.651,188.300 103.224 C 189.345 102.797,191.460 101.975,193.000 101.396 C 194.540 100.817,196.367 100.087,197.060 99.772 C 197.754 99.457,198.519 99.200,198.762 99.200 C 199.004 99.200,199.875 98.840,200.696 98.400 C 201.516 97.960,202.416 97.600,202.696 97.600 C 202.975 97.600,203.875 97.240,204.696 96.800 C 205.516 96.360,206.411 96.000,206.683 96.000 C 206.956 96.000,207.948 95.650,208.889 95.222 C 209.830 94.795,211.095 94.341,211.700 94.215 C 213.921 93.750,212.120 92.333,209.474 92.463 C 208.773 92.497,203.790 92.662,198.400 92.829 M218.780 94.510 C 217.779 95.219,216.666 95.980,216.307 96.200 C 215.948 96.420,211.402 99.480,206.204 103.000 C 201.007 106.520,196.056 109.850,195.203 110.400 C 193.041 111.794,189.878 113.917,189.400 114.295 C 188.246 115.207,176.100 123.187,175.538 123.402 C 175.175 123.542,174.788 124.003,174.677 124.428 C 174.566 124.852,174.188 125.200,173.837 125.200 C 173.487 125.200,173.200 125.380,173.200 125.600 C 173.200 126.150,173.840 126.101,175.120 125.453 C 175.714 125.153,176.893 124.781,177.740 124.628 C 178.587 124.474,179.847 124.109,180.540 123.816 C 181.233 123.524,183.420 122.797,185.400 122.202 C 187.380 121.606,189.630 120.888,190.400 120.606 C 191.170 120.324,193.420 119.604,195.400 119.006 C 197.380 118.408,199.630 117.688,200.400 117.406 C 201.170 117.124,203.420 116.404,205.400 115.806 C 207.380 115.208,209.630 114.488,210.400 114.206 C 211.170 113.924,213.420 113.204,215.400 112.606 C 217.380 112.008,219.630 111.288,220.400 111.006 C 221.170 110.724,223.420 110.004,225.400 109.406 C 227.380 108.808,229.630 108.095,230.400 107.820 C 231.988 107.254,235.388 106.166,240.500 104.587 C 245.112 103.163,245.096 103.133,238.200 100.189 C 236.877 99.624,234.121 98.412,231.500 97.240 C 230.565 96.823,228.630 96.000,227.200 95.412 C 225.770 94.824,224.090 94.086,223.468 93.771 C 221.787 92.923,220.798 93.079,218.780 94.510 M166.300 134.700 C 165.915 134.787,165.494 135.340,165.365 135.929 C 165.235 136.518,164.873 137.816,164.561 138.814 C 164.248 139.812,163.736 141.882,163.423 143.414 C 162.143 149.681,161.141 154.172,160.957 154.470 C 160.849 154.644,160.514 156.095,160.213 157.693 C 159.362 162.198,157.974 168.519,157.757 168.870 C 157.649 169.044,157.314 170.495,157.013 172.093 C 156.162 176.598,154.774 182.919,154.557 183.270 C 154.449 183.444,154.114 184.895,153.813 186.493 C 153.511 188.092,152.890 191.065,152.432 193.100 C 151.975 195.135,151.240 198.420,150.800 200.400 C 150.360 202.380,149.640 205.620,149.200 207.600 C 148.760 209.580,148.040 212.820,147.600 214.800 C 147.160 216.780,146.440 220.020,146.000 222.000 C 145.560 223.980,144.840 227.220,144.400 229.200 C 143.960 231.180,143.240 234.420,142.800 236.400 C 142.360 238.380,141.640 241.620,141.200 243.600 C 140.760 245.580,140.040 248.820,139.600 250.800 C 139.160 252.780,138.440 256.020,138.000 258.000 C 137.560 259.980,136.840 263.220,136.400 265.200 C 135.960 267.180,135.240 270.420,134.800 272.400 C 134.360 274.380,133.640 277.620,133.200 279.600 C 132.760 281.580,132.040 284.820,131.600 286.800 C 131.160 288.780,130.440 292.020,130.000 294.000 C 129.560 295.980,128.840 299.220,128.400 301.200 C 127.960 303.180,127.240 306.420,126.800 308.400 C 126.360 310.380,125.640 313.620,125.200 315.600 C 123.398 323.708,122.757 326.666,122.528 327.925 L 122.287 329.250 123.754 328.426 C 124.561 327.972,126.104 326.926,127.183 326.101 C 129.229 324.535,129.731 324.172,139.200 317.398 C 142.390 315.116,145.900 312.596,147.000 311.798 C 148.100 311.000,151.562 308.514,154.694 306.274 C 157.826 304.033,162.686 300.547,165.494 298.527 C 170.822 294.695,171.476 294.226,175.899 291.077 C 177.385 290.020,179.410 288.543,180.400 287.795 C 181.390 287.047,183.641 285.455,185.402 284.257 C 190.038 281.105,190.634 280.231,189.698 277.967 C 189.463 277.398,189.141 275.238,188.984 273.167 C 188.826 271.095,188.468 268.948,188.187 268.395 C 187.907 267.842,187.544 265.508,187.381 263.209 C 187.213 260.836,186.873 258.816,186.596 258.538 C 185.974 257.917,185.380 250.060,185.914 249.526 C 186.423 249.017,186.669 250.141,187.024 254.599 C 187.182 256.578,187.538 258.558,187.815 258.999 C 188.092 259.439,188.438 261.420,188.584 263.400 C 188.731 265.380,189.096 267.540,189.396 268.200 C 189.697 268.860,190.072 271.020,190.231 273.000 C 190.391 274.980,190.840 277.348,191.230 278.262 L 191.939 279.923 195.269 280.151 C 200.651 280.519,231.261 281.209,231.647 280.971 C 232.246 280.601,232.039 278.832,231.215 277.279 C 230.784 276.466,230.044 274.900,229.572 273.800 C 229.100 272.700,228.373 271.035,227.957 270.100 C 227.540 269.165,226.865 267.635,226.455 266.700 C 226.045 265.765,225.300 264.100,224.800 263.000 C 224.300 261.900,223.580 260.280,223.200 259.400 C 222.820 258.520,222.100 256.900,221.600 255.800 C 221.100 254.700,220.380 253.080,220.000 252.200 C 219.620 251.320,218.925 249.745,218.455 248.700 C 217.620 246.845,216.731 244.830,215.499 242.000 C 214.705 240.178,212.949 236.227,212.032 234.200 C 211.634 233.320,211.031 231.970,210.693 231.200 C 210.354 230.430,209.716 228.990,209.274 228.000 C 208.833 227.010,207.892 224.850,207.183 223.200 C 206.474 221.550,205.396 219.120,204.787 217.800 C 204.179 216.480,202.738 213.240,201.585 210.600 C 200.433 207.960,198.994 204.720,198.387 203.400 C 197.781 202.080,191.308 187.500,184.003 171.000 C 176.697 154.500,170.378 140.268,169.960 139.374 C 169.542 138.479,169.200 137.541,169.200 137.288 C 169.200 137.035,168.840 136.635,168.400 136.400 C 167.960 136.165,167.600 135.719,167.600 135.410 C 167.600 134.710,167.205 134.494,166.300 134.700 M256.374 145.700 C 256.188 146.405,255.060 154.099,254.600 157.800 C 254.272 160.440,253.824 163.320,253.606 164.200 C 253.388 165.080,253.014 167.684,252.775 169.986 C 252.536 172.288,252.259 174.305,252.159 174.467 C 251.978 174.759,250.869 182.479,249.783 191.000 C 249.475 193.420,249.041 196.210,248.820 197.200 C 248.599 198.190,248.233 200.756,248.007 202.901 C 247.781 205.047,247.417 207.567,247.197 208.501 C 246.824 210.087,246.369 213.314,244.983 224.200 C 244.674 226.620,244.241 229.410,244.020 230.400 C 243.799 231.390,243.429 233.998,243.197 236.195 C 242.965 238.392,242.606 240.822,242.400 241.595 C 242.193 242.368,241.830 244.831,241.593 247.070 C 241.355 249.308,240.982 251.738,240.763 252.470 C 240.051 254.849,239.785 262.538,240.422 262.326 C 240.723 262.226,241.192 261.076,241.463 259.772 C 241.735 258.467,242.311 256.140,242.744 254.600 C 243.178 253.060,244.010 250.000,244.595 247.800 C 245.180 245.600,246.011 242.540,246.442 241.000 C 246.873 239.460,247.483 237.210,247.798 236.000 C 248.112 234.790,248.716 232.540,249.140 231.000 C 249.564 229.460,250.399 226.400,250.995 224.200 C 251.591 222.000,252.428 218.940,252.855 217.400 C 253.282 215.860,253.887 213.610,254.200 212.400 C 254.513 211.190,255.119 208.940,255.546 207.400 C 255.974 205.860,256.685 203.250,257.126 201.600 C 258.321 197.132,259.497 192.777,260.448 189.300 C 260.915 187.595,261.549 185.210,261.857 184.000 C 262.166 182.790,262.679 180.900,262.998 179.800 C 263.647 177.562,264.553 174.215,266.190 168.000 C 266.799 165.690,267.545 163.121,267.849 162.292 C 268.825 159.623,268.062 158.167,262.352 151.800 C 261.760 151.140,260.352 149.475,259.223 148.100 C 257.511 146.014,256.512 145.173,256.374 145.700 M170.760 159.700 C 170.723 160.915,170.701 160.935,170.423 160.000 C 170.260 159.450,170.198 158.865,170.287 158.700 C 170.622 158.073,170.799 158.446,170.760 159.700 M172.332 169.200 C 172.341 170.551,172.258 170.800,172.000 170.200 C 171.811 169.760,171.662 168.500,171.668 167.400 C 171.677 165.822,171.747 165.611,172.000 166.400 C 172.176 166.950,172.326 168.210,172.332 169.200 M173.947 178.800 C 173.976 180.097,173.879 180.432,173.600 180.000 C 173.387 179.670,173.231 178.320,173.253 177.000 C 173.302 174.179,173.875 175.667,173.947 178.800 M175.588 187.800 C 175.588 189.754,175.471 190.419,175.200 190.000 C 174.987 189.670,174.812 188.140,174.812 186.600 C 174.812 184.646,174.929 183.981,175.200 184.400 C 175.413 184.730,175.588 186.260,175.588 187.800 M177.188 197.200 C 177.188 199.283,177.069 200.017,176.800 199.600 C 176.587 199.270,176.412 197.650,176.412 196.000 C 176.412 193.917,176.531 193.183,176.800 193.600 C 177.013 193.930,177.188 195.550,177.188 197.200 M178.766 206.800 C 178.781 208.876,178.668 209.615,178.400 209.200 C 178.187 208.870,178.022 207.160,178.034 205.400 C 178.049 203.245,178.168 202.461,178.400 203.000 C 178.589 203.440,178.754 205.150,178.766 206.800 M180.388 216.400 C 180.388 218.741,180.267 219.613,180.000 219.200 C 179.787 218.870,179.612 217.070,179.612 215.200 C 179.612 212.859,179.733 211.987,180.000 212.400 C 180.213 212.730,180.388 214.530,180.388 216.400 M181.988 226.000 C 181.988 228.599,181.865 229.610,181.600 229.200 C 181.387 228.870,181.212 226.890,181.212 224.800 C 181.212 222.201,181.335 221.190,181.600 221.600 C 181.813 221.930,181.988 223.910,181.988 226.000 M183.631 234.081 C 183.985 237.588,183.767 239.707,183.153 238.738 C 182.767 238.128,182.665 230.132,183.048 230.515 C 183.185 230.652,183.447 232.256,183.631 234.081 M185.387 244.855 C 185.662 248.625,185.100 250.925,184.641 247.911 C 184.202 245.035,184.002 241.260,184.253 240.605 C 184.722 239.383,185.089 240.756,185.387 244.855 M239.100 263.733 C 238.622 264.899,238.720 267.040,239.227 266.533 C 239.462 266.298,239.597 265.407,239.527 264.553 C 239.433 263.406,239.322 263.192,239.100 263.733 " stroke="none" fill="#3e4786" fill-rule="evenodd"></path><path id="path1" d="M215.950 71.085 C 214.758 71.368,217.365 73.491,219.295 73.807 C 220.233 73.961,221.270 74.317,221.600 74.599 C 221.930 74.881,222.830 75.241,223.600 75.400 C 224.370 75.559,225.270 75.916,225.600 76.194 C 225.930 76.472,226.857 76.816,227.660 76.960 C 228.463 77.104,229.340 77.486,229.609 77.811 C 229.878 78.135,230.484 78.400,230.955 78.400 C 231.426 78.400,232.439 78.736,233.206 79.147 C 233.973 79.557,235.183 80.021,235.895 80.177 C 236.608 80.334,237.294 80.628,237.419 80.831 C 237.660 81.221,239.200 81.353,239.200 80.983 C 239.200 79.768,230.092 71.286,228.541 71.056 C 226.874 70.810,217.014 70.832,215.950 71.085 M208.800 72.798 C 208.030 73.215,205.600 74.393,203.400 75.414 C 195.504 79.079,194.738 79.602,196.042 80.440 C 196.398 80.669,196.120 80.707,195.277 80.545 C 194.004 80.300,193.768 80.482,189.001 85.375 C 182.571 91.975,182.503 91.798,191.366 91.462 C 195.125 91.319,201.811 91.202,206.224 91.201 C 214.854 91.200,217.256 90.738,214.696 89.571 C 214.093 89.296,213.600 88.920,213.600 88.736 C 213.600 88.206,215.001 88.344,216.254 88.998 C 216.884 89.326,217.693 89.596,218.052 89.598 C 218.410 89.599,219.760 90.065,221.052 90.634 C 222.343 91.203,224.030 91.945,224.800 92.283 C 225.570 92.620,226.866 93.235,227.679 93.648 C 229.418 94.532,230.145 94.589,230.728 93.887 C 231.171 93.353,230.911 92.637,230.175 92.360 C 229.941 92.272,228.051 90.310,225.975 87.999 C 223.899 85.689,221.840 83.424,221.400 82.967 C 219.309 80.793,212.336 72.888,212.216 72.556 C 212.035 72.055,209.891 72.206,208.800 72.798 M217.787 75.621 C 217.644 75.852,217.949 76.443,218.464 76.935 C 219.371 77.801,222.309 81.218,222.772 81.943 C 223.175 82.575,226.969 86.926,227.900 87.824 C 228.395 88.301,228.800 88.806,228.800 88.946 C 228.800 89.176,229.133 89.579,231.019 91.634 C 231.338 91.982,231.600 92.534,231.600 92.859 C 231.600 93.185,232.258 93.766,233.062 94.149 C 234.609 94.887,235.180 94.617,235.194 93.144 C 235.197 92.783,235.556 91.703,235.991 90.744 C 236.426 89.785,236.786 88.637,236.791 88.194 C 236.796 87.751,237.163 86.710,237.607 85.882 C 238.701 83.841,237.016 81.600,234.387 81.600 C 234.116 81.600,233.333 81.259,232.647 80.843 C 231.961 80.427,230.815 79.963,230.100 79.811 C 229.385 79.660,228.800 79.385,228.800 79.200 C 228.800 79.015,228.215 78.740,227.500 78.589 C 226.785 78.437,225.660 77.993,225.000 77.600 C 224.340 77.207,223.227 76.765,222.528 76.617 C 221.828 76.470,221.041 76.090,220.779 75.774 C 220.226 75.108,218.169 75.003,217.787 75.621 M201.000 82.400 C 201.136 82.620,200.887 82.800,200.447 82.800 C 200.007 82.800,199.536 82.620,199.400 82.400 C 199.264 82.180,199.513 82.000,199.953 82.000 C 200.393 82.000,200.864 82.180,201.000 82.400 M204.600 84.000 C 204.736 84.220,204.487 84.400,204.047 84.400 C 203.607 84.400,203.136 84.220,203.000 84.000 C 202.864 83.780,203.113 83.600,203.553 83.600 C 203.993 83.600,204.464 83.780,204.600 84.000 M242.400 84.176 C 242.400 84.493,242.580 84.864,242.800 85.000 C 243.020 85.136,243.200 85.686,243.200 86.222 C 243.200 86.758,243.544 88.233,243.965 89.498 C 244.386 90.764,244.843 92.467,244.980 93.283 C 245.118 94.099,245.492 95.269,245.812 95.883 C 246.133 96.497,246.396 97.644,246.398 98.430 C 246.402 100.844,247.794 101.798,250.251 101.073 C 252.830 100.312,255.314 99.654,258.000 99.019 C 259.210 98.733,261.100 98.229,262.200 97.899 C 264.429 97.229,266.718 96.620,270.000 95.823 C 273.777 94.905,277.375 93.963,278.000 93.728 C 278.697 93.466,275.082 91.660,273.800 91.630 C 273.360 91.620,271.830 91.258,270.400 90.825 C 268.970 90.393,266.810 89.738,265.600 89.370 C 264.390 89.001,262.410 88.467,261.200 88.181 C 259.990 87.895,257.380 87.190,255.400 86.614 C 253.420 86.039,250.990 85.394,250.000 85.182 C 249.010 84.970,247.521 84.527,246.692 84.198 C 244.719 83.416,242.400 83.404,242.400 84.176 M208.600 85.600 C 208.744 85.833,208.337 86.000,207.624 86.000 C 206.951 86.000,206.400 85.820,206.400 85.600 C 206.400 85.380,206.839 85.200,207.376 85.200 C 207.913 85.200,208.464 85.380,208.600 85.600 M239.200 87.200 C 238.760 87.640,238.400 88.498,238.400 89.106 C 238.400 89.714,238.021 90.919,237.558 91.782 C 237.095 92.646,236.690 94.162,236.658 95.152 L 236.600 96.950 239.800 98.655 C 241.560 99.593,243.227 100.479,243.505 100.625 C 244.944 101.379,245.392 98.282,244.075 96.689 C 243.853 96.420,243.541 95.480,243.382 94.600 C 243.223 93.720,242.863 92.544,242.581 91.986 C 242.299 91.429,241.947 90.259,241.799 89.386 C 241.237 86.075,240.742 85.658,239.200 87.200 M212.400 87.200 C 212.400 87.420,211.871 87.600,211.224 87.600 C 210.577 87.600,209.936 87.420,209.800 87.200 C 209.653 86.962,210.129 86.800,210.976 86.800 C 211.759 86.800,212.400 86.980,212.400 87.200 M212.706 94.951 C 212.403 95.254,211.597 95.625,210.916 95.774 C 210.235 95.924,208.992 96.396,208.154 96.823 C 207.316 97.250,206.437 97.600,206.200 97.600 C 205.963 97.600,205.063 97.960,204.200 98.400 C 203.337 98.840,202.320 99.200,201.939 99.200 C 201.559 99.200,201.139 99.375,201.006 99.590 C 200.874 99.804,199.918 100.236,198.883 100.549 C 197.847 100.862,196.460 101.406,195.800 101.757 C 195.140 102.108,194.374 102.396,194.099 102.398 C 193.823 102.399,192.925 102.760,192.104 103.200 C 191.284 103.640,190.384 104.000,190.104 104.000 C 189.825 104.000,188.925 104.360,188.104 104.800 C 187.284 105.240,186.384 105.600,186.104 105.600 C 185.825 105.600,184.925 105.960,184.104 106.400 C 183.284 106.840,182.396 107.200,182.133 107.200 C 179.981 107.200,174.800 112.451,174.800 114.632 C 174.800 114.727,173.623 116.879,172.183 119.414 C 168.972 125.071,169.068 125.985,172.615 123.500 C 173.636 122.785,174.770 122.016,175.135 121.792 C 175.501 121.567,176.591 120.847,177.557 120.192 C 178.524 119.536,179.604 118.816,179.957 118.592 C 180.311 118.367,181.391 117.647,182.357 116.992 C 183.324 116.336,184.404 115.616,184.757 115.392 C 185.111 115.167,186.191 114.447,187.157 113.792 C 188.124 113.136,189.207 112.420,189.565 112.200 C 189.923 111.980,195.004 108.605,200.856 104.700 C 206.708 100.795,211.634 97.600,211.802 97.600 C 211.971 97.600,212.501 97.176,212.982 96.657 C 213.462 96.139,214.113 95.613,214.428 95.488 C 214.917 95.294,214.913 95.200,214.400 94.837 C 213.609 94.277,213.363 94.294,212.706 94.951 M244.000 106.042 C 242.509 106.358,239.502 107.318,237.200 108.213 C 236.430 108.512,235.170 108.878,234.400 109.027 C 233.630 109.175,232.544 109.529,231.986 109.814 C 231.429 110.099,230.259 110.460,229.386 110.618 C 228.514 110.775,227.620 111.044,227.400 111.215 C 227.180 111.386,226.010 111.803,224.800 112.141 C 222.512 112.781,219.463 113.732,217.400 114.450 C 216.740 114.680,215.390 115.107,214.400 115.400 C 213.410 115.693,212.060 116.120,211.400 116.350 C 209.195 117.117,206.216 118.044,204.600 118.464 C 203.720 118.694,202.460 119.114,201.800 119.398 C 201.140 119.683,199.970 120.046,199.200 120.206 C 198.430 120.366,197.350 120.723,196.800 121.000 C 196.250 121.277,195.170 121.625,194.400 121.773 C 193.630 121.922,192.370 122.288,191.600 122.587 C 189.727 123.315,186.646 124.316,184.200 124.992 C 180.417 126.036,174.115 128.299,173.448 128.852 C 173.030 129.199,174.684 129.480,178.849 129.769 C 180.526 129.886,182.334 130.147,182.867 130.349 C 183.399 130.552,186.155 130.927,188.990 131.184 C 191.825 131.440,194.435 131.805,194.790 131.995 C 195.144 132.184,197.227 132.458,199.417 132.603 C 201.608 132.748,204.403 133.109,205.628 133.406 C 206.854 133.704,209.464 134.065,211.428 134.209 C 213.393 134.353,216.080 134.721,217.400 135.027 C 218.720 135.332,221.874 135.755,224.408 135.966 C 226.943 136.177,229.487 136.529,230.062 136.748 C 230.637 136.966,232.883 137.263,235.054 137.408 C 237.224 137.553,239.990 137.920,241.200 138.225 C 247.582 139.830,254.453 139.707,253.741 138.000 C 253.604 137.670,253.262 136.500,252.981 135.400 C 252.701 134.300,252.263 132.590,252.009 131.600 C 251.754 130.610,251.307 128.720,251.015 127.400 C 250.274 124.053,249.198 119.763,248.512 117.422 C 248.193 116.334,247.766 114.534,247.562 113.422 C 246.335 106.733,245.816 105.658,244.000 106.042 M168.584 131.251 C 168.465 131.625,168.935 133.161,169.629 134.665 C 170.322 136.169,171.249 138.210,171.688 139.200 C 172.128 140.190,172.936 141.990,173.484 143.200 C 174.032 144.410,174.715 145.940,175.002 146.600 C 175.973 148.837,177.284 151.792,178.285 154.000 C 178.833 155.210,179.623 156.965,180.041 157.900 C 180.458 158.835,181.185 160.455,181.655 161.500 C 182.125 162.545,182.845 164.165,183.255 165.100 C 183.665 166.035,184.335 167.565,184.745 168.500 C 185.155 169.435,185.875 171.055,186.345 172.100 C 186.815 173.145,187.560 174.810,188.000 175.800 C 188.440 176.790,189.185 178.455,189.655 179.500 C 190.125 180.545,190.845 182.165,191.255 183.100 C 192.205 185.268,193.234 187.572,194.605 190.600 C 195.202 191.920,195.933 193.540,196.229 194.200 C 196.526 194.860,197.470 196.930,198.329 198.800 C 199.187 200.670,200.027 202.650,200.194 203.200 C 200.361 203.750,200.633 204.380,200.797 204.600 C 200.962 204.820,202.847 208.960,204.987 213.800 C 207.126 218.640,209.292 223.500,209.800 224.600 C 210.308 225.700,211.304 227.950,212.015 229.600 C 212.725 231.250,213.842 233.770,214.498 235.200 C 215.153 236.630,216.029 238.565,216.445 239.500 C 216.860 240.435,217.560 242.010,218.000 243.000 C 218.440 243.990,219.160 245.610,219.600 246.600 C 220.040 247.590,220.760 249.210,221.200 250.200 C 221.640 251.190,222.360 252.810,222.800 253.800 C 223.240 254.790,223.980 256.455,224.444 257.500 C 224.908 258.545,225.736 260.390,226.285 261.600 C 227.299 263.840,228.208 265.889,229.301 268.400 C 234.545 280.459,234.727 280.632,235.402 274.200 C 235.540 272.880,235.812 271.170,236.005 270.400 C 236.199 269.630,236.554 267.110,236.796 264.800 C 237.037 262.490,237.399 260.060,237.600 259.400 C 237.801 258.740,238.163 256.310,238.404 254.000 C 238.646 251.690,239.007 249.170,239.208 248.400 C 239.409 247.630,239.766 245.290,240.001 243.200 C 240.237 241.110,240.681 237.960,240.988 236.200 C 241.296 234.440,241.744 231.560,241.984 229.800 C 242.225 228.040,242.606 225.250,242.832 223.600 C 243.058 221.950,243.516 218.980,243.849 217.000 C 244.182 215.020,244.617 211.960,244.816 210.200 C 245.014 208.440,245.443 205.470,245.770 203.600 C 246.096 201.730,246.547 198.850,246.771 197.200 C 246.995 195.550,247.375 192.760,247.616 191.000 C 247.856 189.240,248.324 186.270,248.656 184.400 C 248.988 182.530,249.420 179.470,249.614 177.600 C 249.809 175.730,250.237 172.670,250.566 170.800 C 250.894 168.930,251.347 166.050,251.571 164.400 C 252.640 156.536,252.917 154.683,253.663 150.400 C 254.542 145.348,254.523 142.847,253.600 142.373 C 252.801 141.962,246.121 140.888,242.520 140.592 C 240.935 140.462,239.045 140.184,238.320 139.975 C 237.594 139.766,234.988 139.408,232.528 139.178 C 230.069 138.948,227.459 138.583,226.728 138.367 C 225.998 138.151,223.477 137.800,221.128 137.588 C 218.778 137.375,215.718 136.949,214.328 136.640 C 212.937 136.331,210.240 135.963,208.334 135.821 C 206.428 135.680,204.268 135.387,203.534 135.171 C 202.800 134.956,200.310 134.601,198.000 134.383 C 195.690 134.165,192.540 133.731,191.000 133.417 C 189.460 133.104,186.760 132.739,185.000 132.605 C 183.240 132.472,181.080 132.172,180.200 131.939 C 176.542 130.971,168.818 130.513,168.584 131.251 " stroke="none" fill="#f3643e" fill-rule="evenodd"></path><path id="path2" d="M0.000 200.000 L 0.000 400.000 200.000 400.000 L 400.000 400.000 400.000 200.000 L 400.000 0.000 200.000 0.000 L 0.000 0.000 0.000 200.000 M230.919 70.808 C 232.722 72.226,240.595 80.424,240.729 81.023 C 240.800 81.340,241.307 81.600,241.856 81.600 C 242.404 81.600,243.190 81.780,243.602 82.001 C 244.014 82.222,245.487 82.662,246.876 82.980 C 248.264 83.298,251.020 84.022,253.000 84.589 C 256.585 85.616,258.655 86.166,263.600 87.408 C 265.030 87.767,266.791 88.317,267.514 88.631 C 268.236 88.944,269.186 89.200,269.624 89.200 C 270.062 89.200,271.418 89.551,272.639 89.980 C 273.859 90.409,275.688 90.884,276.703 91.036 C 282.684 91.933,280.369 94.896,272.400 96.543 C 271.357 96.758,268.025 97.643,264.600 98.614 C 261.955 99.365,258.357 100.301,255.400 101.009 C 254.080 101.326,252.280 101.850,251.400 102.175 C 250.520 102.499,248.945 102.773,247.900 102.782 C 245.703 102.803,245.683 102.870,246.962 105.912 C 247.491 107.170,248.054 109.100,248.214 110.200 C 248.374 111.300,248.743 112.830,249.035 113.600 C 249.326 114.370,249.734 115.900,249.941 117.000 C 250.497 119.953,251.550 124.351,252.192 126.400 C 252.502 127.390,252.934 129.315,253.152 130.678 C 253.370 132.041,253.729 133.493,253.949 133.905 C 254.169 134.316,254.568 136.261,254.835 138.226 C 255.314 141.762,256.073 144.000,256.792 144.000 C 257.138 144.000,260.243 147.488,263.000 150.973 C 263.660 151.808,264.480 152.785,264.821 153.145 C 265.163 153.505,266.314 154.840,267.378 156.110 L 269.314 158.420 269.078 161.244 C 268.947 162.798,268.661 164.286,268.440 164.552 C 268.220 164.817,267.775 166.196,267.451 167.617 C 266.760 170.643,266.134 173.028,265.301 175.800 C 264.971 176.900,264.467 178.790,264.181 180.000 C 263.464 183.034,262.806 185.475,262.132 187.600 C 261.818 188.590,261.314 190.390,261.011 191.600 C 260.195 194.864,259.573 197.163,258.901 199.400 C 258.571 200.500,258.067 202.390,257.781 203.600 C 257.064 206.634,256.406 209.075,255.732 211.200 C 255.418 212.190,254.914 213.990,254.611 215.200 C 253.671 218.960,253.136 220.912,252.354 223.428 C 251.939 224.764,251.600 226.152,251.600 226.514 C 251.600 226.876,251.306 228.033,250.946 229.086 C 250.586 230.139,250.056 231.990,249.768 233.200 C 248.649 237.904,247.910 240.633,247.544 241.409 C 247.334 241.854,246.914 243.294,246.612 244.609 C 245.916 247.630,245.300 249.958,244.392 253.000 C 243.997 254.320,243.553 256.114,243.403 256.986 C 243.254 257.859,242.877 259.065,242.566 259.666 C 242.255 260.268,241.992 261.264,241.982 261.880 C 241.973 262.496,241.690 263.720,241.354 264.600 C 241.017 265.480,240.504 267.280,240.212 268.600 C 239.568 271.517,238.106 275.030,236.896 276.569 C 236.403 277.196,236.000 278.067,236.000 278.507 C 236.000 278.946,235.357 279.912,234.572 280.653 L 233.143 282.000 220.272 281.960 C 213.192 281.938,203.710 281.793,199.200 281.639 C 191.216 281.364,190.974 281.379,190.000 282.206 C 189.450 282.672,188.550 283.355,188.000 283.724 C 187.450 284.092,185.650 285.387,184.000 286.602 C 180.560 289.134,178.175 290.824,177.228 291.400 C 176.867 291.620,176.307 292.022,175.985 292.294 C 174.253 293.756,172.855 294.800,172.630 294.800 C 172.407 294.800,171.214 295.666,167.137 298.786 C 166.552 299.234,165.877 299.600,165.637 299.600 C 165.397 299.600,165.200 299.762,165.200 299.960 C 165.200 300.159,164.615 300.695,163.900 301.151 C 161.874 302.446,161.371 302.797,156.846 306.086 C 154.511 307.783,152.010 309.583,151.290 310.086 C 150.569 310.589,149.629 311.270,149.200 311.600 C 148.771 311.930,147.831 312.616,147.110 313.124 C 146.390 313.633,144.242 315.163,142.338 316.524 C 140.435 317.886,138.479 319.270,137.993 319.600 C 137.507 319.930,136.520 320.650,135.800 321.200 C 135.080 321.750,134.085 322.470,133.590 322.800 C 133.094 323.130,131.859 324.038,130.844 324.818 C 129.830 325.597,128.055 326.843,126.900 327.585 C 125.745 328.327,124.800 329.063,124.800 329.219 C 124.800 329.715,122.442 330.502,121.751 330.237 C 121.021 329.957,121.184 325.925,121.985 324.428 C 122.201 324.024,122.583 322.367,122.832 320.747 C 123.082 319.126,123.442 317.506,123.632 317.147 C 123.823 316.787,124.183 315.167,124.432 313.547 C 124.682 311.926,125.042 310.306,125.232 309.947 C 125.423 309.587,125.783 307.967,126.032 306.347 C 126.282 304.726,126.642 303.106,126.832 302.747 C 127.023 302.387,127.383 300.767,127.632 299.147 C 127.882 297.526,128.242 295.906,128.432 295.547 C 128.623 295.187,128.983 293.567,129.232 291.947 C 129.482 290.326,129.842 288.706,130.032 288.347 C 130.223 287.987,130.583 286.367,130.832 284.747 C 131.082 283.126,131.442 281.506,131.632 281.147 C 131.823 280.787,132.183 279.167,132.432 277.547 C 132.682 275.926,133.042 274.306,133.232 273.947 C 133.423 273.587,133.783 271.967,134.032 270.347 C 134.282 268.726,134.642 267.106,134.832 266.747 C 135.023 266.387,135.383 264.767,135.632 263.147 C 135.882 261.526,136.242 259.906,136.432 259.547 C 136.623 259.187,136.983 257.567,137.232 255.947 C 137.482 254.326,137.842 252.706,138.032 252.347 C 138.223 251.987,138.583 250.367,138.832 248.747 C 139.082 247.126,139.442 245.506,139.632 245.147 C 139.823 244.787,140.183 243.167,140.432 241.547 C 140.682 239.926,141.042 238.306,141.232 237.947 C 141.423 237.587,141.783 235.967,142.032 234.347 C 142.282 232.726,142.642 231.106,142.832 230.747 C 143.023 230.387,143.383 228.767,143.632 227.147 C 143.882 225.526,144.242 223.906,144.432 223.547 C 144.623 223.187,144.983 221.567,145.232 219.947 C 145.482 218.326,145.842 216.706,146.032 216.347 C 146.223 215.987,146.583 214.367,146.832 212.747 C 147.082 211.126,147.442 209.506,147.632 209.147 C 147.823 208.787,148.183 207.167,148.432 205.547 C 148.682 203.926,149.042 202.306,149.232 201.947 C 149.423 201.587,149.783 199.967,150.032 198.347 C 150.282 196.726,150.642 195.106,150.832 194.747 C 151.023 194.387,151.383 192.767,151.632 191.147 C 151.882 189.526,152.242 187.906,152.432 187.547 C 152.623 187.187,152.983 185.567,153.232 183.947 C 153.482 182.326,153.842 180.706,154.032 180.347 C 154.223 179.987,154.583 178.367,154.832 176.747 C 155.082 175.126,155.442 173.506,155.632 173.147 C 155.823 172.787,156.183 171.167,156.432 169.547 C 156.682 167.926,157.042 166.306,157.232 165.947 C 157.423 165.587,157.783 163.967,158.032 162.347 C 158.282 160.726,158.642 159.106,158.832 158.747 C 159.023 158.387,159.383 156.767,159.632 155.147 C 159.882 153.526,160.242 151.906,160.432 151.547 C 160.623 151.187,160.983 149.567,161.232 147.947 C 161.482 146.326,161.842 144.706,162.032 144.347 C 162.223 143.987,162.580 142.367,162.827 140.747 C 163.721 134.885,166.260 129.952,168.699 129.339 C 169.746 129.077,169.866 128.319,168.978 127.582 C 167.192 126.100,167.172 126.165,172.466 116.600 C 173.075 115.500,173.845 114.060,174.178 113.400 C 174.511 112.740,174.954 111.930,175.162 111.600 C 176.751 109.076,177.357 107.675,177.260 106.749 C 177.198 106.156,177.519 104.856,177.974 103.858 C 178.428 102.860,178.806 101.719,178.814 101.322 C 178.821 100.925,179.175 99.880,179.600 99.000 C 180.025 98.120,180.379 97.123,180.386 96.785 C 180.394 96.446,180.758 95.466,181.196 94.607 C 181.634 93.748,182.098 92.486,182.226 91.803 C 182.779 88.856,194.696 77.923,199.200 76.231 C 199.530 76.107,200.070 75.840,200.400 75.638 C 200.730 75.436,201.990 74.821,203.200 74.271 C 204.410 73.721,206.380 72.805,207.579 72.236 C 208.777 71.666,210.127 71.186,210.579 71.170 C 211.030 71.153,212.030 70.897,212.800 70.600 C 215.324 69.628,229.627 69.792,230.919 70.808 M218.800 92.000 C 219.576 92.501,220.000 92.501,220.000 92.000 C 220.000 91.780,219.595 91.603,219.100 91.606 C 218.372 91.611,218.315 91.686,218.800 92.000 " stroke="none" fill="#fbfbfb" fill-rule="evenodd"></path><path id="path3" d="M206.000 91.656 C 202.810 91.842,196.201 92.132,191.314 92.301 C 181.212 92.650,181.729 92.457,180.569 96.320 C 180.218 97.487,179.678 98.927,179.368 99.520 C 179.058 100.114,178.798 100.960,178.789 101.400 C 178.780 101.840,178.425 102.920,178.000 103.800 C 176.414 107.083,177.182 108.452,180.015 107.393 C 180.887 107.067,182.365 106.525,183.300 106.189 C 184.235 105.853,185.360 105.414,185.800 105.213 C 187.225 104.563,211.758 94.907,213.118 94.461 C 214.182 94.112,216.003 93.059,217.188 92.108 C 218.288 91.225,215.397 91.108,206.000 91.656 M220.600 92.300 C 220.160 92.408,219.316 92.880,218.725 93.349 C 218.134 93.817,217.234 94.486,216.725 94.836 C 214.535 96.341,195.052 109.455,194.195 110.000 C 186.184 115.098,169.200 126.867,169.200 127.321 C 169.200 127.953,170.825 127.910,172.951 127.222 C 174.298 126.786,177.740 125.691,180.600 124.790 C 183.460 123.888,186.520 122.909,187.400 122.614 C 188.280 122.319,191.700 121.224,195.000 120.182 C 198.300 119.139,202.800 117.706,205.000 116.995 C 207.200 116.285,211.700 114.858,215.000 113.824 C 218.300 112.790,221.720 111.700,222.600 111.403 C 223.480 111.105,227.980 109.669,232.600 108.211 C 249.172 102.979,248.789 103.656,237.879 98.883 C 222.677 92.234,221.965 91.962,220.600 92.300 M211.774 92.790 C 213.113 93.299,213.080 93.926,211.700 94.215 C 211.095 94.341,209.830 94.795,208.889 95.222 C 207.948 95.650,206.956 96.000,206.683 96.000 C 206.411 96.000,205.516 96.360,204.696 96.800 C 203.875 97.240,202.975 97.600,202.696 97.600 C 202.416 97.600,201.516 97.960,200.696 98.400 C 199.875 98.840,199.004 99.200,198.762 99.200 C 198.519 99.200,197.754 99.457,197.060 99.772 C 196.367 100.087,194.540 100.817,193.000 101.396 C 191.460 101.975,189.345 102.797,188.300 103.224 C 187.255 103.651,185.455 104.380,184.300 104.845 C 183.145 105.309,181.604 105.942,180.875 106.250 C 178.369 107.311,178.324 106.729,180.421 100.443 C 183.052 92.557,181.146 93.364,198.400 92.829 C 203.790 92.662,208.773 92.497,209.474 92.463 C 210.175 92.428,211.210 92.576,211.774 92.790 M223.468 93.771 C 224.090 94.086,225.770 94.824,227.200 95.412 C 228.630 96.000,230.565 96.823,231.500 97.240 C 234.121 98.412,236.877 99.624,238.200 100.189 C 245.096 103.133,245.112 103.163,240.500 104.587 C 235.388 106.166,231.988 107.254,230.400 107.820 C 229.630 108.095,227.380 108.808,225.400 109.406 C 223.420 110.004,221.170 110.724,220.400 111.006 C 219.630 111.288,217.380 112.008,215.400 112.606 C 213.420 113.204,211.170 113.924,210.400 114.206 C 209.630 114.488,207.380 115.208,205.400 115.806 C 203.420 116.404,201.170 117.124,200.400 117.406 C 199.630 117.688,197.380 118.408,195.400 119.006 C 193.420 119.604,191.170 120.324,190.400 120.606 C 189.630 120.888,187.380 121.606,185.400 122.202 C 183.420 122.797,181.233 123.524,180.540 123.816 C 179.847 124.109,178.587 124.474,177.740 124.628 C 176.893 124.781,175.714 125.153,175.120 125.453 C 173.840 126.101,173.200 126.150,173.200 125.600 C 173.200 125.380,173.487 125.200,173.837 125.200 C 174.188 125.200,174.566 124.852,174.677 124.428 C 174.788 124.003,175.175 123.542,175.538 123.402 C 176.100 123.187,188.246 115.207,189.400 114.295 C 189.878 113.917,193.041 111.794,195.203 110.400 C 196.056 109.850,201.007 106.520,206.204 103.000 C 211.402 99.480,215.948 96.420,216.307 96.200 C 216.666 95.980,217.779 95.219,218.780 94.510 C 220.798 93.079,221.787 92.923,223.468 93.771 M165.496 132.300 C 164.616 133.282,163.359 137.262,162.827 140.747 C 162.580 142.367,162.223 143.987,162.032 144.347 C 161.842 144.706,161.482 146.326,161.232 147.947 C 160.983 149.567,160.623 151.187,160.432 151.547 C 160.242 151.906,159.882 153.526,159.632 155.147 C 159.383 156.767,159.023 158.387,158.832 158.747 C 158.642 159.106,158.282 160.726,158.032 162.347 C 157.783 163.967,157.423 165.587,157.232 165.947 C 157.042 166.306,156.682 167.926,156.432 169.547 C 156.183 171.167,155.823 172.787,155.632 173.147 C 155.442 173.506,155.082 175.126,154.832 176.747 C 154.583 178.367,154.223 179.987,154.032 180.347 C 153.842 180.706,153.482 182.326,153.232 183.947 C 152.983 185.567,152.623 187.187,152.432 187.547 C 152.242 187.906,151.882 189.526,151.632 191.147 C 151.383 192.767,151.023 194.387,150.832 194.747 C 150.642 195.106,150.282 196.726,150.032 198.347 C 149.783 199.967,149.423 201.587,149.232 201.947 C 149.042 202.306,148.682 203.926,148.432 205.547 C 148.183 207.167,147.823 208.787,147.632 209.147 C 147.442 209.506,147.082 211.126,146.832 212.747 C 146.583 214.367,146.223 215.987,146.032 216.347 C 145.842 216.706,145.482 218.326,145.232 219.947 C 144.983 221.567,144.623 223.187,144.432 223.547 C 144.242 223.906,143.882 225.526,143.632 227.147 C 143.383 228.767,143.023 230.387,142.832 230.747 C 142.642 231.106,142.282 232.726,142.032 234.347 C 141.783 235.967,141.423 237.587,141.232 237.947 C 141.042 238.306,140.682 239.926,140.432 241.547 C 140.183 243.167,139.823 244.787,139.632 245.147 C 139.442 245.506,139.082 247.126,138.832 248.747 C 138.583 250.367,138.223 251.987,138.032 252.347 C 137.842 252.706,137.482 254.326,137.232 255.947 C 136.983 257.567,136.623 259.187,136.432 259.547 C 136.242 259.906,135.882 261.526,135.632 263.147 C 135.383 264.767,135.023 266.387,134.832 266.747 C 134.642 267.106,134.282 268.726,134.032 270.347 C 133.783 271.967,133.423 273.587,133.232 273.947 C 133.042 274.306,132.682 275.926,132.432 277.547 C 132.183 279.167,131.823 280.787,131.632 281.147 C 131.442 281.506,131.082 283.126,130.832 284.747 C 130.583 286.367,130.223 287.987,130.032 288.347 C 129.842 288.706,129.482 290.326,129.232 291.947 C 128.983 293.567,128.623 295.187,128.432 295.547 C 128.242 295.906,127.882 297.526,127.632 299.147 C 127.383 300.767,127.023 302.387,126.832 302.747 C 126.642 303.106,126.282 304.726,126.032 306.347 C 125.783 307.967,125.423 309.587,125.232 309.947 C 125.042 310.306,124.682 311.926,124.432 313.547 C 124.183 315.167,123.823 316.787,123.632 317.147 C 123.442 317.506,123.082 319.126,122.832 320.747 C 122.583 322.367,122.201 324.024,121.985 324.428 C 121.184 325.925,121.021 329.957,121.751 330.237 C 122.442 330.502,124.800 329.715,124.800 329.219 C 124.800 329.063,125.745 328.327,126.900 327.585 C 128.055 326.843,129.830 325.597,130.844 324.818 C 131.859 324.038,133.094 323.130,133.590 322.800 C 134.085 322.470,135.080 321.750,135.800 321.200 C 136.520 320.650,137.507 319.930,137.993 319.600 C 138.479 319.270,140.435 317.886,142.338 316.524 C 144.242 315.163,146.390 313.633,147.110 313.124 C 147.831 312.616,148.771 311.930,149.200 311.600 C 149.629 311.270,150.569 310.589,151.290 310.086 C 152.010 309.583,154.511 307.783,156.846 306.086 C 161.371 302.797,161.874 302.446,163.900 301.151 C 164.615 300.695,165.200 300.159,165.200 299.960 C 165.200 299.762,165.397 299.600,165.637 299.600 C 165.877 299.600,166.552 299.234,167.137 298.786 C 171.214 295.666,172.407 294.800,172.630 294.800 C 172.855 294.800,174.253 293.756,175.985 292.294 C 176.307 292.022,176.867 291.620,177.228 291.400 C 178.175 290.824,180.560 289.134,184.000 286.602 C 185.650 285.387,187.450 284.092,188.000 283.724 C 188.550 283.355,189.450 282.668,190.000 282.197 C 190.988 281.350,191.117 281.343,201.000 281.673 C 218.040 282.241,233.359 281.959,233.529 281.074 C 233.636 280.516,218.467 245.704,211.186 229.800 C 210.582 228.480,200.861 206.610,189.584 181.200 C 178.307 155.790,168.712 134.235,168.261 133.300 C 167.378 131.471,166.518 131.160,165.496 132.300 M167.600 135.410 C 167.600 135.719,167.960 136.165,168.400 136.400 C 168.840 136.635,169.200 137.035,169.200 137.288 C 169.200 137.541,169.542 138.479,169.960 139.374 C 170.378 140.268,176.697 154.500,184.003 171.000 C 191.308 187.500,197.781 202.080,198.387 203.400 C 198.994 204.720,200.433 207.960,201.585 210.600 C 202.738 213.240,204.179 216.480,204.787 217.800 C 205.396 219.120,206.474 221.550,207.183 223.200 C 207.892 224.850,208.833 227.010,209.274 228.000 C 209.716 228.990,210.354 230.430,210.693 231.200 C 211.031 231.970,211.634 233.320,212.032 234.200 C 212.949 236.227,214.705 240.178,215.499 242.000 C 216.731 244.830,217.620 246.845,218.455 248.700 C 218.925 249.745,219.620 251.320,220.000 252.200 C 220.380 253.080,221.100 254.700,221.600 255.800 C 222.100 256.900,222.820 258.520,223.200 259.400 C 223.580 260.280,224.300 261.900,224.800 263.000 C 225.300 264.100,226.045 265.765,226.455 266.700 C 226.865 267.635,227.540 269.165,227.957 270.100 C 228.373 271.035,229.100 272.700,229.572 273.800 C 230.044 274.900,230.784 276.466,231.215 277.279 C 232.039 278.832,232.246 280.601,231.647 280.971 C 231.261 281.209,200.651 280.519,195.269 280.151 L 191.939 279.923 191.230 278.262 C 190.840 277.348,190.391 274.980,190.231 273.000 C 190.072 271.020,189.697 268.860,189.396 268.200 C 189.096 267.540,188.731 265.380,188.584 263.400 C 188.438 261.420,188.092 259.439,187.815 258.999 C 187.538 258.558,187.182 256.578,187.024 254.599 C 186.669 250.141,186.423 249.017,185.914 249.526 C 185.380 250.060,185.974 257.917,186.596 258.538 C 186.873 258.816,187.213 260.836,187.381 263.209 C 187.544 265.508,187.907 267.842,188.187 268.395 C 188.468 268.948,188.826 271.095,188.984 273.167 C 189.141 275.238,189.463 277.398,189.698 277.967 C 190.634 280.231,190.038 281.105,185.402 284.257 C 183.641 285.455,181.390 287.047,180.400 287.795 C 179.410 288.543,177.385 290.020,175.899 291.077 C 171.476 294.226,170.822 294.695,165.494 298.527 C 162.686 300.547,157.826 304.033,154.694 306.274 C 151.562 308.514,148.100 311.000,147.000 311.798 C 145.900 312.596,142.390 315.116,139.200 317.398 C 129.731 324.172,129.229 324.535,127.183 326.101 C 126.104 326.926,124.561 327.972,123.754 328.426 L 122.287 329.250 122.528 327.925 C 122.757 326.666,123.398 323.708,125.200 315.600 C 125.640 313.620,126.360 310.380,126.800 308.400 C 127.240 306.420,127.960 303.180,128.400 301.200 C 128.840 299.220,129.560 295.980,130.000 294.000 C 130.440 292.020,131.160 288.780,131.600 286.800 C 132.040 284.820,132.760 281.580,133.200 279.600 C 133.640 277.620,134.360 274.380,134.800 272.400 C 135.240 270.420,135.960 267.180,136.400 265.200 C 136.840 263.220,137.560 259.980,138.000 258.000 C 138.440 256.020,139.160 252.780,139.600 250.800 C 140.040 248.820,140.760 245.580,141.200 243.600 C 141.640 241.620,142.360 238.380,142.800 236.400 C 143.240 234.420,143.960 231.180,144.400 229.200 C 144.840 227.220,145.560 223.980,146.000 222.000 C 146.440 220.020,147.160 216.780,147.600 214.800 C 148.040 212.820,148.760 209.580,149.200 207.600 C 149.640 205.620,150.360 202.380,150.800 200.400 C 151.240 198.420,151.975 195.135,152.432 193.100 C 152.890 191.065,153.511 188.092,153.813 186.493 C 154.114 184.895,154.449 183.444,154.557 183.270 C 154.774 182.919,156.162 176.598,157.013 172.093 C 157.314 170.495,157.649 169.044,157.757 168.870 C 157.974 168.519,159.362 162.198,160.213 157.693 C 160.514 156.095,160.849 154.644,160.957 154.470 C 161.141 154.172,162.143 149.681,163.423 143.414 C 163.736 141.882,164.248 139.812,164.561 138.814 C 164.873 137.816,165.235 136.518,165.365 135.929 C 165.685 134.475,167.600 134.030,167.600 135.410 M255.605 144.791 C 255.372 145.226,254.922 147.431,254.604 149.691 C 253.131 160.157,252.328 165.680,251.795 169.000 C 251.477 170.980,251.110 173.500,250.979 174.600 C 250.755 176.490,249.910 182.260,248.607 190.800 C 248.288 192.890,247.918 195.500,247.784 196.600 C 247.544 198.577,246.532 205.422,245.389 212.800 C 245.065 214.890,244.632 217.950,244.426 219.600 C 243.848 224.241,242.868 231.031,242.204 235.000 C 241.872 236.980,241.432 239.950,241.227 241.600 C 240.649 246.237,239.669 253.029,239.004 257.000 C 238.673 258.980,238.216 262.040,237.989 263.800 C 237.762 265.560,237.412 267.900,237.212 269.000 C 236.666 271.996,236.690 276.670,237.248 276.112 C 237.986 275.374,239.645 271.168,240.212 268.600 C 240.504 267.280,241.017 265.480,241.354 264.600 C 241.690 263.720,241.973 262.496,241.982 261.880 C 241.992 261.264,242.255 260.268,242.566 259.666 C 242.877 259.065,243.254 257.859,243.403 256.986 C 243.553 256.114,243.997 254.320,244.392 253.000 C 245.300 249.958,245.916 247.630,246.612 244.609 C 246.914 243.294,247.334 241.854,247.544 241.409 C 247.910 240.633,248.649 237.904,249.768 233.200 C 250.056 231.990,250.586 230.139,250.946 229.086 C 251.306 228.033,251.600 226.876,251.600 226.514 C 251.600 226.152,251.939 224.764,252.354 223.428 C 253.136 220.912,253.671 218.960,254.611 215.200 C 254.914 213.990,255.418 212.190,255.732 211.200 C 256.406 209.075,257.064 206.634,257.781 203.600 C 258.067 202.390,258.571 200.500,258.901 199.400 C 259.573 197.163,260.195 194.864,261.011 191.600 C 261.314 190.390,261.818 188.590,262.132 187.600 C 262.806 185.475,263.464 183.034,264.181 180.000 C 264.467 178.790,264.971 176.900,265.301 175.800 C 266.134 173.028,266.760 170.643,267.451 167.617 C 267.775 166.196,268.220 164.817,268.440 164.552 C 268.661 164.286,268.947 162.798,269.078 161.244 L 269.314 158.420 267.378 156.110 C 266.314 154.840,265.163 153.505,264.821 153.145 C 264.480 152.785,263.660 151.808,263.000 150.973 C 257.726 144.307,256.440 143.231,255.605 144.791 M259.223 148.100 C 260.352 149.475,261.760 151.140,262.352 151.800 C 268.062 158.167,268.825 159.623,267.849 162.292 C 267.545 163.121,266.799 165.690,266.190 168.000 C 264.553 174.215,263.647 177.562,262.998 179.800 C 262.679 180.900,262.166 182.790,261.857 184.000 C 261.549 185.210,260.915 187.595,260.448 189.300 C 259.497 192.777,258.321 197.132,257.126 201.600 C 256.685 203.250,255.974 205.860,255.546 207.400 C 255.119 208.940,254.513 211.190,254.200 212.400 C 253.887 213.610,253.282 215.860,252.855 217.400 C 252.428 218.940,251.591 222.000,250.995 224.200 C 250.399 226.400,249.564 229.460,249.140 231.000 C 248.716 232.540,248.112 234.790,247.798 236.000 C 247.483 237.210,246.873 239.460,246.442 241.000 C 246.011 242.540,245.180 245.600,244.595 247.800 C 244.010 250.000,243.178 253.060,242.744 254.600 C 242.311 256.140,241.735 258.467,241.463 259.772 C 241.192 261.076,240.723 262.226,240.422 262.326 C 239.785 262.538,240.051 254.849,240.763 252.470 C 240.982 251.738,241.355 249.308,241.593 247.070 C 241.830 244.831,242.193 242.368,242.400 241.595 C 242.606 240.822,242.965 238.392,243.197 236.195 C 243.429 233.998,243.799 231.390,244.020 230.400 C 244.241 229.410,244.674 226.620,244.983 224.200 C 246.369 213.314,246.824 210.087,247.197 208.501 C 247.417 207.567,247.781 205.047,248.007 202.901 C 248.233 200.756,248.599 198.190,248.820 197.200 C 249.041 196.210,249.475 193.420,249.783 191.000 C 250.869 182.479,251.978 174.759,252.159 174.467 C 252.259 174.305,252.536 172.288,252.775 169.986 C 253.014 167.684,253.388 165.080,253.606 164.200 C 253.824 163.320,254.272 160.440,254.600 157.800 C 255.060 154.099,256.188 146.405,256.374 145.700 C 256.512 145.173,257.511 146.014,259.223 148.100 M170.287 158.700 C 170.198 158.865,170.260 159.450,170.423 160.000 C 170.701 160.935,170.723 160.915,170.760 159.700 C 170.799 158.446,170.622 158.073,170.287 158.700 M171.668 167.400 C 171.662 168.500,171.811 169.760,172.000 170.200 C 172.456 171.261,172.456 167.823,172.000 166.400 C 171.747 165.611,171.677 165.822,171.668 167.400 M173.253 177.000 C 173.231 178.320,173.387 179.670,173.600 180.000 C 174.072 180.730,174.072 177.653,173.600 175.800 C 173.354 174.833,173.287 175.065,173.253 177.000 M174.812 186.600 C 174.812 188.140,174.987 189.670,175.200 190.000 C 175.471 190.419,175.588 189.754,175.588 187.800 C 175.588 186.260,175.413 184.730,175.200 184.400 C 174.929 183.981,174.812 184.646,174.812 186.600 M176.412 196.000 C 176.412 197.650,176.587 199.270,176.800 199.600 C 177.069 200.017,177.188 199.283,177.188 197.200 C 177.188 195.550,177.013 193.930,176.800 193.600 C 176.531 193.183,176.412 193.917,176.412 196.000 M178.034 205.400 C 178.022 207.160,178.187 208.870,178.400 209.200 C 178.896 209.968,178.896 204.155,178.400 203.000 C 178.168 202.461,178.049 203.245,178.034 205.400 M179.612 215.200 C 179.612 217.070,179.787 218.870,180.000 219.200 C 180.267 219.613,180.388 218.741,180.388 216.400 C 180.388 214.530,180.213 212.730,180.000 212.400 C 179.733 211.987,179.612 212.859,179.612 215.200 M181.212 224.800 C 181.212 226.890,181.387 228.870,181.600 229.200 C 181.865 229.610,181.988 228.599,181.988 226.000 C 181.988 223.910,181.813 221.930,181.600 221.600 C 181.335 221.190,181.212 222.201,181.212 224.800 M182.806 234.233 C 182.812 238.230,183.259 240.214,183.730 238.337 C 183.993 237.288,183.437 230.903,183.048 230.515 C 182.912 230.378,182.803 232.052,182.806 234.233 M184.253 240.605 C 184.002 241.260,184.202 245.035,184.641 247.911 C 185.100 250.925,185.662 248.625,185.387 244.855 C 185.089 240.756,184.722 239.383,184.253 240.605 M239.227 266.533 C 238.720 267.040,238.622 264.899,239.100 263.733 C 239.322 263.192,239.433 263.406,239.527 264.553 C 239.597 265.407,239.462 266.298,239.227 266.533 " stroke="none" fill="#adaec5" fill-rule="evenodd"></path><path id="path4" d="M212.800 70.600 C 212.030 70.897,211.030 71.153,210.579 71.170 C 210.127 71.186,208.777 71.666,207.579 72.236 C 206.380 72.805,204.410 73.721,203.200 74.271 C 201.990 74.821,200.730 75.436,200.400 75.638 C 200.070 75.840,199.530 76.104,199.200 76.225 C 194.768 77.849,183.063 88.488,182.285 91.600 L 182.035 92.600 187.317 92.461 C 190.223 92.385,196.920 92.081,202.200 91.785 L 211.800 91.247 198.143 91.423 C 186.574 91.573,184.452 91.512,184.267 91.029 C 183.785 89.774,193.779 80.257,195.277 80.545 C 196.120 80.707,196.398 80.669,196.042 80.440 C 194.739 79.602,195.497 79.084,203.400 75.412 C 205.600 74.390,208.030 73.219,208.800 72.811 C 210.696 71.805,211.936 72.153,213.535 74.141 C 214.776 75.684,219.574 81.068,221.400 82.967 C 221.840 83.424,223.899 85.689,225.975 87.999 C 228.051 90.310,229.941 92.272,230.175 92.360 C 230.911 92.637,231.171 93.353,230.728 93.887 C 230.145 94.589,229.418 94.532,227.679 93.648 C 226.866 93.235,225.570 92.620,224.800 92.283 C 224.030 91.945,222.343 91.203,221.052 90.634 C 219.760 90.065,218.410 89.599,218.052 89.598 C 217.693 89.596,216.884 89.326,216.254 88.998 C 215.001 88.344,213.600 88.206,213.600 88.736 C 213.600 88.920,214.093 89.296,214.696 89.571 C 215.754 90.053,215.765 90.090,215.020 90.635 C 214.265 91.187,214.266 91.200,215.091 91.200 C 217.518 91.200,217.697 91.904,215.600 93.200 C 213.905 94.248,213.692 94.590,214.500 94.967 C 214.880 95.144,214.863 95.262,214.428 95.457 C 214.113 95.599,213.462 96.139,212.982 96.657 C 212.501 97.176,211.971 97.600,211.802 97.600 C 211.634 97.600,206.708 100.795,200.856 104.700 C 195.004 108.605,189.923 111.980,189.565 112.200 C 189.207 112.420,188.124 113.136,187.157 113.792 C 186.191 114.447,185.111 115.167,184.757 115.392 C 184.404 115.616,183.324 116.336,182.357 116.992 C 181.391 117.647,180.311 118.367,179.957 118.592 C 179.604 118.816,178.524 119.536,177.557 120.192 C 176.591 120.847,175.501 121.567,175.135 121.792 C 174.770 122.016,173.636 122.785,172.615 123.500 C 169.068 125.985,168.972 125.071,172.183 119.414 C 173.623 116.879,174.800 114.730,174.800 114.638 C 174.800 112.161,179.141 108.002,182.800 106.973 C 183.350 106.819,184.160 106.436,184.600 106.124 C 185.743 105.311,183.567 105.829,181.512 106.859 C 180.693 107.269,179.471 107.665,178.795 107.739 C 177.175 107.916,176.678 108.526,174.187 113.400 C 173.849 114.060,173.075 115.500,172.466 116.600 C 167.172 126.165,167.192 126.100,168.978 127.582 C 169.910 128.355,169.733 128.974,168.441 129.462 C 167.156 129.947,165.969 131.600,166.906 131.600 C 167.612 131.600,166.248 128.616,189.582 181.200 C 200.857 206.610,210.416 228.120,210.823 229.000 C 214.414 236.759,233.600 280.303,233.600 280.694 C 233.600 281.406,234.166 281.323,234.907 280.500 C 235.960 279.332,236.787 276.347,236.818 273.600 C 236.834 272.170,237.012 270.100,237.212 269.000 C 237.412 267.900,237.762 265.560,237.989 263.800 C 238.216 262.040,238.673 258.980,239.004 257.000 C 239.669 253.029,240.649 246.237,241.227 241.600 C 241.432 239.950,241.872 236.980,242.204 235.000 C 242.868 231.031,243.848 224.241,244.426 219.600 C 244.632 217.950,245.065 214.890,245.389 212.800 C 246.532 205.422,247.544 198.577,247.784 196.600 C 247.918 195.500,248.288 192.890,248.607 190.800 C 249.910 182.260,250.755 176.490,250.979 174.600 C 251.110 173.500,251.477 170.980,251.795 169.000 C 252.327 165.682,253.105 160.339,254.613 149.630 C 254.936 147.336,255.450 145.079,255.755 144.613 C 256.205 143.926,256.216 143.581,255.814 142.783 C 255.541 142.242,255.100 140.192,254.834 138.226 C 254.567 136.261,254.169 134.316,253.949 133.905 C 253.729 133.493,253.370 132.041,253.152 130.678 C 252.934 129.315,252.502 127.390,252.192 126.400 C 251.568 124.408,250.580 120.287,249.841 116.591 C 249.576 115.266,249.234 113.979,249.081 113.730 C 248.927 113.482,248.545 111.956,248.232 110.340 C 247.918 108.723,247.286 106.562,246.828 105.537 L 245.995 103.673 243.498 104.624 C 242.124 105.147,237.220 106.764,232.600 108.218 C 227.980 109.672,223.480 111.105,222.600 111.403 C 221.720 111.700,218.300 112.790,215.000 113.824 C 211.700 114.858,207.200 116.285,205.000 116.995 C 202.800 117.706,198.300 119.139,195.000 120.182 C 191.700 121.224,188.280 122.319,187.400 122.614 C 186.520 122.909,183.460 123.888,180.600 124.790 C 177.740 125.691,174.298 126.786,172.951 127.222 C 170.825 127.910,169.200 127.953,169.200 127.321 C 169.200 126.867,186.184 115.098,194.195 110.000 C 194.714 109.670,199.787 106.266,205.469 102.436 C 221.176 91.847,219.909 92.815,218.974 92.131 C 218.288 91.630,218.297 91.600,219.124 91.600 C 219.606 91.600,220.000 91.801,220.000 92.047 C 220.000 92.309,220.361 92.399,220.877 92.264 C 221.727 92.042,223.130 92.537,230.700 95.735 C 232.515 96.502,234.000 96.965,234.000 96.765 C 234.000 96.564,234.180 96.400,234.400 96.400 C 234.620 96.400,234.800 96.641,234.800 96.936 C 234.800 97.237,237.077 98.484,240.009 99.789 C 242.874 101.064,245.315 102.263,245.433 102.453 C 245.773 103.003,249.644 102.823,251.400 102.175 C 252.280 101.850,254.080 101.326,255.400 101.009 C 258.357 100.301,261.955 99.365,264.600 98.614 C 268.025 97.643,271.357 96.758,272.400 96.543 C 280.369 94.896,282.684 91.933,276.703 91.036 C 275.688 90.884,273.859 90.409,272.639 89.980 C 271.418 89.551,270.062 89.200,269.624 89.200 C 269.186 89.200,268.236 88.944,267.514 88.631 C 266.791 88.317,265.030 87.767,263.600 87.408 C 258.655 86.166,256.585 85.616,253.000 84.589 C 251.020 84.022,248.264 83.298,246.876 82.980 C 245.487 82.662,244.014 82.222,243.602 82.001 C 243.190 81.780,242.404 81.600,241.856 81.600 C 241.307 81.600,240.800 81.340,240.729 81.023 C 240.595 80.424,232.722 72.226,230.919 70.808 C 229.627 69.792,215.324 69.628,212.800 70.600 M228.541 71.056 C 230.092 71.286,239.200 79.768,239.200 80.983 C 239.200 81.353,237.660 81.221,237.419 80.831 C 237.294 80.628,236.608 80.334,235.895 80.177 C 235.183 80.021,233.973 79.557,233.206 79.147 C 232.439 78.736,231.426 78.400,230.955 78.400 C 230.484 78.400,229.878 78.135,229.609 77.811 C 229.340 77.486,228.463 77.104,227.660 76.960 C 226.857 76.816,225.930 76.472,225.600 76.194 C 225.270 75.916,224.370 75.559,223.600 75.400 C 222.830 75.241,221.930 74.881,221.600 74.599 C 221.270 74.317,220.233 73.961,219.295 73.807 C 217.365 73.491,214.758 71.368,215.950 71.085 C 217.014 70.832,226.874 70.810,228.541 71.056 M220.779 75.774 C 221.041 76.090,221.828 76.470,222.528 76.617 C 223.227 76.765,224.340 77.207,225.000 77.600 C 225.660 77.993,226.785 78.437,227.500 78.589 C 228.215 78.740,228.800 79.015,228.800 79.200 C 228.800 79.385,229.385 79.660,230.100 79.811 C 230.815 79.963,231.961 80.427,232.647 80.843 C 233.333 81.259,234.116 81.600,234.387 81.600 C 237.016 81.600,238.701 83.841,237.607 85.882 C 237.163 86.710,236.796 87.751,236.791 88.194 C 236.786 88.637,236.426 89.785,235.991 90.744 C 235.556 91.703,235.197 92.783,235.194 93.144 C 235.180 94.617,234.609 94.887,233.062 94.149 C 232.258 93.766,231.600 93.185,231.600 92.859 C 231.600 92.534,231.338 91.982,231.019 91.634 C 229.133 89.579,228.800 89.176,228.800 88.946 C 228.800 88.806,228.395 88.301,227.900 87.824 C 226.969 86.926,223.175 82.575,222.772 81.943 C 222.309 81.218,219.371 77.801,218.464 76.935 C 217.949 76.443,217.644 75.852,217.787 75.621 C 218.169 75.003,220.226 75.108,220.779 75.774 M199.400 82.400 C 199.536 82.620,200.007 82.800,200.447 82.800 C 200.887 82.800,201.136 82.620,201.000 82.400 C 200.864 82.180,200.393 82.000,199.953 82.000 C 199.513 82.000,199.264 82.180,199.400 82.400 M203.000 84.000 C 203.136 84.220,203.607 84.400,204.047 84.400 C 204.487 84.400,204.736 84.220,204.600 84.000 C 204.464 83.780,203.993 83.600,203.553 83.600 C 203.113 83.600,202.864 83.780,203.000 84.000 M246.692 84.198 C 247.521 84.527,249.010 84.970,250.000 85.182 C 250.990 85.394,253.420 86.039,255.400 86.614 C 257.380 87.190,259.990 87.895,261.200 88.181 C 262.410 88.467,264.390 89.001,265.600 89.370 C 266.810 89.738,268.970 90.393,270.400 90.825 C 271.830 91.258,273.360 91.620,273.800 91.630 C 275.082 91.660,278.697 93.466,278.000 93.728 C 277.375 93.963,273.777 94.905,270.000 95.823 C 266.718 96.620,264.429 97.229,262.200 97.899 C 261.100 98.229,259.210 98.733,258.000 99.019 C 255.314 99.654,252.830 100.312,250.251 101.073 C 247.794 101.798,246.402 100.844,246.398 98.430 C 246.396 97.644,246.133 96.497,245.812 95.883 C 245.492 95.269,245.118 94.099,244.980 93.283 C 244.843 92.467,244.386 90.764,243.965 89.498 C 243.544 88.233,243.200 86.758,243.200 86.222 C 243.200 85.686,243.020 85.136,242.800 85.000 C 240.845 83.792,244.018 83.138,246.692 84.198 M206.400 85.600 C 206.400 85.820,206.951 86.000,207.624 86.000 C 208.337 86.000,208.744 85.833,208.600 85.600 C 208.464 85.380,207.913 85.200,207.376 85.200 C 206.839 85.200,206.400 85.380,206.400 85.600 M241.338 87.100 C 241.444 87.485,241.651 88.514,241.799 89.386 C 241.947 90.259,242.299 91.429,242.581 91.986 C 242.863 92.544,243.223 93.720,243.382 94.600 C 243.541 95.480,243.853 96.420,244.075 96.689 C 245.392 98.282,244.944 101.379,243.505 100.625 C 243.227 100.479,241.560 99.593,239.800 98.655 L 236.600 96.950 236.658 95.152 C 236.690 94.162,237.095 92.646,237.558 91.782 C 238.021 90.919,238.400 89.714,238.400 89.106 C 238.400 87.171,240.891 85.471,241.338 87.100 M209.800 87.200 C 209.936 87.420,210.577 87.600,211.224 87.600 C 211.871 87.600,212.400 87.420,212.400 87.200 C 212.400 86.980,211.759 86.800,210.976 86.800 C 210.129 86.800,209.653 86.962,209.800 87.200 M210.400 95.439 L 209.400 96.050 210.400 95.831 C 210.950 95.710,211.625 95.608,211.900 95.605 C 212.175 95.602,212.400 95.420,212.400 95.200 C 212.400 94.629,211.562 94.729,210.400 95.439 M207.000 96.778 C 206.120 97.195,205.631 97.550,205.913 97.568 C 206.549 97.608,209.200 96.521,209.200 96.220 C 209.200 95.852,208.675 95.986,207.000 96.778 M203.000 98.378 C 202.120 98.795,201.631 99.150,201.913 99.168 C 202.549 99.208,205.200 98.121,205.200 97.820 C 205.200 97.452,204.675 97.586,203.000 98.378 M199.000 99.978 C 198.120 100.395,197.631 100.750,197.913 100.768 C 198.549 100.808,201.200 99.721,201.200 99.420 C 201.200 99.052,200.675 99.186,199.000 99.978 M195.000 101.613 C 193.625 102.294,193.564 102.374,194.567 102.178 C 195.210 102.053,196.105 101.692,196.556 101.375 C 197.730 100.553,196.877 100.684,195.000 101.613 M191.000 103.213 C 189.625 103.894,189.564 103.974,190.567 103.778 C 191.210 103.653,192.105 103.292,192.556 102.975 C 193.730 102.153,192.877 102.284,191.000 103.213 M187.329 104.530 C 186.629 104.789,185.909 105.160,185.729 105.356 C 185.230 105.897,187.607 105.240,188.556 104.575 C 189.526 103.896,189.090 103.880,187.329 104.530 M246.470 108.708 C 246.867 110.189,247.358 112.310,247.562 113.422 C 247.766 114.534,248.193 116.334,248.512 117.422 C 249.198 119.763,250.274 124.053,251.015 127.400 C 251.307 128.720,251.754 130.610,252.009 131.600 C 252.263 132.590,252.701 134.300,252.981 135.400 C 253.262 136.500,253.604 137.670,253.741 138.000 C 254.453 139.707,247.582 139.830,241.200 138.225 C 239.990 137.920,237.224 137.553,235.054 137.408 C 232.883 137.263,230.637 136.966,230.062 136.748 C 229.487 136.529,226.943 136.177,224.408 135.966 C 221.874 135.755,218.720 135.332,217.400 135.027 C 216.080 134.721,213.393 134.353,211.428 134.209 C 209.464 134.065,206.854 133.704,205.628 133.406 C 204.403 133.109,201.608 132.748,199.417 132.603 C 197.227 132.458,195.144 132.184,194.790 131.995 C 194.435 131.805,191.825 131.440,188.990 131.184 C 186.155 130.927,183.399 130.552,182.867 130.349 C 182.334 130.147,180.526 129.886,178.849 129.769 C 174.684 129.480,173.030 129.199,173.448 128.852 C 174.115 128.299,180.417 126.036,184.200 124.992 C 186.646 124.316,189.727 123.315,191.600 122.587 C 192.370 122.288,193.630 121.922,194.400 121.773 C 195.170 121.625,196.250 121.277,196.800 121.000 C 197.350 120.723,198.430 120.366,199.200 120.206 C 199.970 120.046,201.140 119.683,201.800 119.398 C 202.460 119.114,203.720 118.694,204.600 118.464 C 206.216 118.044,209.195 117.117,211.400 116.350 C 212.060 116.120,213.410 115.693,214.400 115.400 C 215.390 115.107,216.740 114.680,217.400 114.450 C 219.463 113.732,222.512 112.781,224.800 112.141 C 226.010 111.803,227.180 111.386,227.400 111.215 C 227.620 111.044,228.514 110.775,229.386 110.618 C 230.259 110.460,231.429 110.099,231.986 109.814 C 232.544 109.529,233.630 109.175,234.400 109.027 C 235.170 108.878,236.430 108.512,237.200 108.213 C 240.878 106.783,245.189 105.583,245.575 105.881 C 245.671 105.955,246.074 107.228,246.470 108.708 M180.200 131.939 C 181.080 132.172,183.240 132.472,185.000 132.605 C 186.760 132.739,189.460 133.104,191.000 133.417 C 192.540 133.731,195.690 134.165,198.000 134.383 C 200.310 134.601,202.800 134.956,203.534 135.171 C 204.268 135.387,206.428 135.680,208.334 135.821 C 210.240 135.963,212.937 136.331,214.328 136.640 C 215.718 136.949,218.778 137.375,221.128 137.588 C 223.477 137.800,225.998 138.151,226.728 138.367 C 227.459 138.583,230.069 138.948,232.528 139.178 C 234.988 139.408,237.594 139.766,238.320 139.975 C 239.045 140.184,240.935 140.462,242.520 140.592 C 246.121 140.888,252.801 141.962,253.600 142.373 C 254.523 142.847,254.542 145.348,253.663 150.400 C 252.917 154.683,252.640 156.536,251.571 164.400 C 251.347 166.050,250.894 168.930,250.566 170.800 C 250.237 172.670,249.809 175.730,249.614 177.600 C 249.420 179.470,248.988 182.530,248.656 184.400 C 248.324 186.270,247.856 189.240,247.616 191.000 C 247.375 192.760,246.995 195.550,246.771 197.200 C 246.547 198.850,246.096 201.730,245.770 203.600 C 245.443 205.470,245.014 208.440,244.816 210.200 C 244.617 211.960,244.182 215.020,243.849 217.000 C 243.516 218.980,243.058 221.950,242.832 223.600 C 242.606 225.250,242.225 228.040,241.984 229.800 C 241.744 231.560,241.296 234.440,240.988 236.200 C 240.681 237.960,240.237 241.110,240.001 243.200 C 239.766 245.290,239.409 247.630,239.208 248.400 C 239.007 249.170,238.646 251.690,238.404 254.000 C 238.163 256.310,237.801 258.740,237.600 259.400 C 237.399 260.060,237.037 262.490,236.796 264.800 C 236.554 267.110,236.199 269.630,236.005 270.400 C 235.812 271.170,235.540 272.880,235.402 274.200 C 234.727 280.632,234.545 280.459,229.301 268.400 C 228.208 265.889,227.299 263.840,226.285 261.600 C 225.736 260.390,224.908 258.545,224.444 257.500 C 223.980 256.455,223.240 254.790,222.800 253.800 C 222.360 252.810,221.640 251.190,221.200 250.200 C 220.760 249.210,220.040 247.590,219.600 246.600 C 219.160 245.610,218.440 243.990,218.000 243.000 C 217.560 242.010,216.860 240.435,216.445 239.500 C 216.029 238.565,215.153 236.630,214.498 235.200 C 213.842 233.770,212.725 231.250,212.015 229.600 C 211.304 227.950,210.308 225.700,209.800 224.600 C 209.292 223.500,207.126 218.640,204.987 213.800 C 202.847 208.960,200.962 204.820,200.797 204.600 C 200.633 204.380,200.361 203.750,200.194 203.200 C 200.027 202.650,199.187 200.670,198.329 198.800 C 197.470 196.930,196.526 194.860,196.229 194.200 C 195.933 193.540,195.202 191.920,194.605 190.600 C 193.234 187.572,192.205 185.268,191.255 183.100 C 190.845 182.165,190.125 180.545,189.655 179.500 C 189.185 178.455,188.440 176.790,188.000 175.800 C 187.560 174.810,186.815 173.145,186.345 172.100 C 185.875 171.055,185.155 169.435,184.745 168.500 C 184.335 167.565,183.665 166.035,183.255 165.100 C 182.845 164.165,182.125 162.545,181.655 161.500 C 181.185 160.455,180.458 158.835,180.041 157.900 C 179.623 156.965,178.833 155.210,178.285 154.000 C 177.284 151.792,175.973 148.837,175.002 146.600 C 174.715 145.940,174.032 144.410,173.484 143.200 C 172.936 141.990,172.128 140.190,171.688 139.200 C 171.249 138.210,170.322 136.169,169.629 134.665 C 167.729 130.544,167.807 130.476,173.700 131.043 C 176.395 131.303,179.320 131.706,180.200 131.939 " stroke="none" fill="#eeb8a7" fill-rule="evenodd"></path></g></svg>